#!OML:ASF H:\Terrain\Walking\May29\JustinRory\rory.ASF
:FULLY-SPECIFIED
:DEGREES
374
root 3.83645 18.283 7.26639 -14.2126 -46.3586 24.3297
lowerback 7.78557 -4.9861 0.091724
upperback 4.27678 -6.75863 6.95725
thorax 0.96307 -3.56416 7.66036
lowerneck -4.57749 9.78957 11.6261
upperneck 24.4465 16.2531 -18.0735
head 11.1529 6.89386 -6.60312
rclavicle 5.24792e-014 5.40694e-014
rhumerus -44.4845 -19.654 -28.2792
rradius 34.1874
rwrist -8.49127
rhand -18.1465 28.7477
rfingers 7.12502
rthumb 8.12892 -1.07597
lclavicle 5.24792e-014 5.40694e-014
lhumerus -37.4001 -10.5732 77.319
lradius 62.2451
lwrist 10.4582
lhand -5.68128 16.9207
lfingers 7.12502
lthumb 20.1387 45.8969
rfemur -36.6462 4.73767 10.7897
rtibia 32.883
rfoot -11.2675 -6.78379
rtoes 13.4901
lfemur -2.2208 8.44416 -36.4502
ltibia 23.4683
lfoot -9.15677 -9.48647
ltoes 9.42441
375
root 3.76321 18.3075 7.46904 -13.6961 -46.4103 23.4667
lowerback 7.81435 -5.23074 0.884888
upperback 4.46772 -7.05653 7.19668
thorax 1.1246 -3.71167 7.47822
lowerneck -4.59239 9.52258 11.4961
upperneck 24.6567 15.878 -18.0377
head 11.1479 6.69888 -6.63786
rclavicle -7.95139e-015 -4.77083e-014
rhumerus -44.6407 -19.3725 -28.2535
rradius 33.9148
rwrist -8.80939
rhand -18.3062 28.3099
rfingers 7.12502
rthumb 7.97479 -1.51967
lclavicle -7.95139e-015 -4.77083e-014
lhumerus -37.9375 -9.7456 77.592
lradius 62.4858
lwrist 10.2709
lhand -6.24321 16.6959
lfingers 7.12502
lthumb 19.5985 45.728
rfemur -36.0155 5.15017 11.3489
rtibia 32.1511
rfoot -10.8978 -7.58429
rtoes 13.9109
lfemur -1.18661 8.68665 -35.9095
ltibia 22.9408
lfoot -8.57229 -9.73779
ltoes 8.02546
376
root 3.69657 18.3261 7.66175 -13.792 -47.3219 24.0568
lowerback 7.57128 -5.06885 0.762776
upperback 4.64197 -6.88219 7.23925
thorax 1.44003 -3.63866 7.54765
lowerneck -4.76658 9.31007 11.2907
upperneck 24.9236 15.5366 -17.7832
head 11.1751 6.52148 -6.56205
rclavicle 1.00187e-013 -2.22639e-014
rhumerus -44.7505 -19.3587 -28.2972
rradius 33.6688
rwrist -8.90944
rhand -18.2241 27.8665
rfingers 7.12502
rthumb 8.05406 -1.95999
lclavicle 1.00187e-013 -2.22639e-014
lhumerus -38.402 -8.91951 77.7922
lradius 62.8427
lwrist 10.0094
lhand -6.03912 16.5248
lfingers 7.12502
lthumb 19.7948 45.5368
rfemur -35.902 5.6793 11.2066
rtibia 30.9759
rfoot -9.7174 -7.43013
rtoes 13.4262
lfemur -1.32001 9.76084 -36.3542
ltibia 23.2835
lfoot -8.38971 -9.9794
ltoes 4.12572
377
root 3.61432 18.3334 7.87178 -13.856 -46.1204 23.863
lowerback 7.64906 -5.52134 1.0067
upperback 4.8377 -7.48248 7.23159
thorax 1.64908 -3.94133 7.42631
lowerneck -5.32927 8.97836 10.9021
upperneck 25.4734 14.959 -17.1158
head 11.292 6.22501 -6.32512
rclavicle 1.01778e-013 -6.04305e-014
rhumerus -45.4284 -19.8124 -28.0872
rradius 33.4755
rwrist -8.27701
rhand -18.4468 27.6552
rfingers 7.12502
rthumb 7.83907 -2.17946
lclavicle 1.01778e-013 -6.04305e-014
lhumerus -38.5703 -8.60181 78.0028
lradius 63.1517
lwrist 9.84008
lhand -6.02639 16.0452
lfingers 7.12502
lthumb 19.807 45.056
rfemur -34.7136 5.20794 10.8131
rtibia 30.3364
rfoot -9.42356 -8.27233
rtoes 13.5379
lfemur -0.314619 9.40718 -36.4605
ltibia 23.6533
lfoot -7.39752 -10.8026
ltoes 3.77419
378
root 3.53973 18.3226 8.06681 -13.8509 -46.0249 24.0869
lowerback 7.61016 -5.61112 0.840187
upperback 4.95099 -7.63089 7.34752
thorax 1.84926 -4.03173 7.63849
lowerneck -5.75914 8.65532 10.3215
upperneck 25.9348 14.4576 -16.612
head 11.3699 5.9413 -6.10933
rclavicle -5.88403e-014 2.54444e-014
rhumerus -45.87 -20.8222 -27.4675
rradius 32.9804
rwrist -6.8709
rhand -18.3227 28.1421
rfingers 7.12502
rthumb 7.95889 -1.68802
lclavicle -5.88403e-014 2.54444e-014
lhumerus -38.818 -7.8128 78.2756
lradius 63.2977
lwrist 9.5322
lhand -6.35423 15.2483
lfingers 7.12502
lthumb 19.4918 44.2913
rfemur -34.3015 5.44616 10.4617
rtibia 29.8931
rfoot -8.81331 -8.54324
rtoes 14.2137
lfemur -0.216315 9.88431 -36.6648
ltibia 24.3568
lfoot -6.06293 -11.6122
ltoes 7.69662
379
root 3.47472 18.301 8.24732 -13.2627 -46.3215 23.8617
lowerback 7.65323 -5.57475 1.05656
upperback 4.86376 -7.56582 7.56791
thorax 1.73049 -3.99685 7.76242
lowerneck -5.80873 8.3432 10.0084
upperneck 26.3528 14.0083 -16.3533
head 11.4135 5.70636 -6.04093
rclavicle 1.81292e-013 -3.18055e-014
rhumerus -46.5301 -21.8639 -26.6746
rradius 32.6502
rwrist -6.03103
rhand -17.7595 28.4209
rfingers 7.12502
rthumb 8.50244 -1.38788
lclavicle 1.81292e-013 -3.18055e-014
lhumerus -39.2682 -7.3287 78.5796
lradius 63.4088
lwrist 9.40574
lhand -6.61949 14.8586
lfingers 7.12502
lthumb 19.2368 43.9272
rfemur -34.4453 6.12636 10.4696
rtibia 29.7381
rfoot -7.97178 -9.36481
rtoes 12.2253
lfemur -0.812138 10.5304 -36.4935
ltibia 25.569
lfoot -4.77452 -12.3068
ltoes 14.3333
380
root 3.40381 18.2772 8.44198 -12.7749 -46.3805 23.6029
lowerback 7.74944 -5.43 1.5132
upperback 4.73504 -7.32386 7.62564
thorax 1.4601 -3.85576 7.57744
lowerneck -6.0287 7.88578 10.1767
upperneck 27.1277 13.311 -16.1018
head 11.6309 5.38649 -6.1091
rclavicle -6.99722e-014 -5.08889e-014
rhumerus -48.059 -22.2941 -26.0462
rradius 32.9128
rwrist -5.94016
rhand -17.2536 27.9118
rfingers 7.12502
rthumb 8.99066 -1.87664
lclavicle -6.99722e-014 -5.08889e-014
lhumerus -39.6553 -7.82516 78.9544
lradius 63.505
lwrist 9.59308
lhand -6.52354 15.5174
lfingers 7.12502
lthumb 19.329 44.5768
rfemur -34.3239 6.71234 10.3578
rtibia 29.6572
rfoot -7.24759 -10.2363
rtoes 8.96943
lfemur -1.34946 11.2595 -36.2991
ltibia 27.1546
lfoot -3.79479 -13.1979
ltoes 21.0829
381
root 3.3207 18.2306 8.65043 -12.9558 -46.3259 23.9763
lowerback 7.78058 -5.48483 1.37494
upperback 4.7283 -7.39976 7.54677
thorax 1.45122 -3.89441 7.57741
lowerneck -6.4338 7.63117 10.5872
upperneck 28.0835 12.9371 -16.1002
head 12.0627 5.2031 -6.28085
rclavicle -7.95139e-015 4.45278e-014
rhumerus -48.7506 -21.9352 -26.1173
rradius 32.8459
rwrist -5.81727
rhand -17.6506 27.6711
rfingers 7.12502
rthumb 8.60754 -2.13344
lclavicle -7.95139e-015 4.45278e-014
lhumerus -40.2424 -7.69895 79.1086
lradius 63.6177
lwrist 9.62742
lhand -6.92046 15.9476
lfingers 7.12502
lthumb 18.9473 45.0448
rfemur -33.9593 7.07708 9.80628
rtibia 29.807
rfoot -5.90581 -9.85483
rtoes 12.2351
lfemur -1.69167 12.2504 -36.4659
ltibia 28.9006
lfoot -2.68613 -14.3672
ltoes 11.5214
382
root 3.24364 18.2039 8.84245 -13.0422 -46.2931 24.1522
lowerback 7.90096 -5.73099 1.29173
upperback 4.79926 -7.7348 7.56248
thorax 1.51633 -4.06968 7.66626
lowerneck -5.99472 7.53758 9.49242
upperneck 28.2994 12.7241 -15.1518
head 11.8568 5.09228 -5.75948
rclavicle -6.67916e-014 8.90555e-014
rhumerus -48.7067 -21.116 -26.6189
rradius 32.4682
rwrist -6.5509
rhand -18.4959 28.1523
rfingers 7.12502
rthumb 7.79177 -1.68415
lclavicle -6.67916e-014 8.90555e-014
lhumerus -40.8246 -6.89183 79.1604
lradius 63.7025
lwrist 9.56348
lhand -7.48738 15.4821
lfingers 7.12502
lthumb 18.402 44.6317
rfemur -33.6921 7.3364 9.51011
rtibia 30.1585
rfoot -3.31973 -9.04282
rtoes 15.6009
lfemur -1.93585 13.3796 -36.3729
ltibia 30.4345
lfoot -0.617937 -15.3074
ltoes 9.04659
383
root 3.16522 18.1936 9.03034 -12.8736 -46.1403 24.027
lowerback 7.92984 -5.86491 1.5002
upperback 4.91732 -7.91272 7.64346
thorax 1.63284 -4.161 7.6416
lowerneck -6.61892 7.36698 9.26584
upperneck 29.1699 12.5134 -14.9885
head 12.2769 4.92651 -5.71413
rclavicle -2.8625e-014 -5.40694e-014
rhumerus -49.2348 -21.5993 -26.3424
rradius 32.0583
rwrist -6.40974
rhand -17.7971 28.1255
rfingers 7.12502
rthumb 8.46613 -1.68481
lclavicle -2.8625e-014 -5.40694e-014
lhumerus -41.0668 -6.46337 79.4211
lradius 63.7871
lwrist 9.66038
lhand -7.21693 15.5687
lfingers 7.12502
lthumb 18.6622 44.6935
rfemur -33.7645 7.19557 9.51275
rtibia 30.8665
rfoot -0.1174 -7.30553
rtoes 24.3699
lfemur -2.23587 14.4584 -36.0034
ltibia 32.04
lfoot 2.175 -15.7061
ltoes 10.5353
384
root 3.07102 18.2195 9.22448 -13.0857 -45.9032 24.3116
lowerback 7.94443 -5.89741 1.32034
upperback 5.05114 -7.97788 7.57548
thorax 1.7885 -4.20211 7.66484
lowerneck -6.57932 7.07099 8.66892
upperneck 29.387 11.9735 -14.2406
head 12.165 4.68664 -5.39875
rclavicle 1.59028e-014 1.59028e-014
rhumerus -50.2802 -23.3749 -25.1045
rradius 31.404
rwrist -5.32998
rhand -14.9688 28.4665
rfingers 7.12502
rthumb 11.1949 -1.21483
lclavicle 1.59028e-014 1.59028e-014
lhumerus -41.1862 -6.29672 79.5692
lradius 63.7331
lwrist 9.70564
lhand -6.53788 15.7853
lfingers 7.12502
lthumb 19.3152 44.8461
rfemur -33.8128 6.97979 9.16378
rtibia 31.7149
rfoot 1.26614 -5.24432
rtoes 31.6545
lfemur -2.55384 15.566 -35.8267
ltibia 33.8119
lfoot 5.34617 -16.0289
ltoes 7.53331
385
root 2.99359 18.2198 9.40718 -13.0335 -45.8486 24.11
lowerback 8.42366 -5.80671 1.46668
upperback 5.0973 -7.82237 7.61637
thorax 1.54146 -4.12002 7.67674
lowerneck -6.52657 6.72972 8.46613
upperneck 29.6786 11.3933 -13.7859
head 12.1335 4.44066 -5.28121
rclavicle -6.04305e-014 -3.81667e-014
rhumerus -51.3916 -23.5694 -24.7175
rradius 30.7559
rwrist -4.96834
rhand -15.7225 29.8157
rfingers 7.12502
rthumb 10.4678 0.0963271
lclavicle -6.04305e-014 -3.81667e-014
lhumerus -41.1523 -6.29015 79.8487
lradius 63.2784
lwrist 9.33332
lhand -6.01521 15.1466
lfingers 7.12502
lthumb 19.8177 44.1563
rfemur -33.9062 7.32771 9.08953
rtibia 32.8965
rfoot 0.971377 -7.32314
rtoes 28.7695
lfemur -3.13437 16.8033 -35.1601
ltibia 35.942
lfoot 9.13111 -16.8125
ltoes 2.03837
386
root 2.93869 18.1981 9.57209 -12.5047 -46.0655 23.411
lowerback 9.18621 -5.71428 1.95791
upperback 5.02039 -7.6114 7.88156
thorax 0.993592 -4.00285 7.77598
lowerneck -6.55722 6.40335 7.89655
upperneck 30.1281 10.9254 -13.4072
head 12.1893 4.18594 -5.11758
rclavicle -4.6118e-014 2.22639e-014
rhumerus -51.667 -21.0742 -27.0973
rradius 30.4224
rwrist -2.45789
rhand -25.2911 26.8477
rfingers 7.12502
rthumb 1.23039 -3.12849
lclavicle -4.6118e-014 2.22639e-014
lhumerus -41.2352 -6.05267 80.3461
lradius 62.8114
lwrist 8.70322
lhand -5.67263 15.0469
lfingers 7.12502
lthumb 20.147 44.0222
rfemur -34.1412 7.85845 9.49803
rtibia 34.2325
rfoot 0.134935 -8.55342
rtoes 24.0521
lfemur -4.25679 17.8946 -34.0923
ltibia 38.331
lfoot 14.3678 -15.6904
ltoes 9.88891
